<svg xmlns="http://www.w3.org/2000/svg" viewBox="0 0 64 64">
  <defs>
    <linearGradient id="gold" x1="0" y1="0" x2="1" y2="1">
      <stop offset="0%" stop-color="#e6c58a"/>
      <stop offset="100%" stop-color="#b99c79"/>
    </linearGradient>
  </defs>

  <rect width="64" height="64" rx="16" fill="#0b0b0b"/>

  <path
    d="M42 18H26c-4 0-6 2.2-6 5.4 0 3.2 2.4 4.8 6.2 5.7l5.6 1.3c2.3.5 3.4 1.2 3.4 2.8 0 1.7-1.3 2.7-3.8 2.7H20"
    fill="none"
    stroke="url(#gold)"
    stroke-width="5"
    stroke-linecap="round"
    stroke-linejoin="round"
  />

  <path
    d="M22 46h16c4 0 6-2.1 6-5.3 0-3.2-2.4-4.7-6.2-5.6l-5.6-1.3c-2.3-.5-3.4-1.2-3.4-2.8 0-1.8 1.3-2.8 3.8-2.8H44"
    fill="none"
    stroke="url(#gold)"
    stroke-width="5"
    stroke-linecap="round"
    stroke-linejoin="round"
  />
</svg>